<?xml version="1.0" encoding="utf-8"?>
<!-- Generator: Adobe Illustrator 21.0.2, SVG Export Plug-In . SVG Version: 6.00 Build 0)  -->
<svg version="1.1" id="Capa_1" xmlns="http://www.w3.org/2000/svg" xmlns:xlink="http://www.w3.org/1999/xlink" x="0px" y="0px"
	 viewBox="0 0 425.2 86.6" style="enable-background:new 0 0 425.2 86.6;" xml:space="preserve">
<style type="text/css">
	.st0{fill:#FFFFFF;}
</style>
<g>
	<polygon class="st0" points="37.1,24.4 25.7,46.7 14.6,24.4 0,24.4 30.6,84.8 45.3,84.8 33.2,59.2 53.1,24.4 	"/>
	<path class="st0" d="M62.5,24.4h13.2v7c4-6.6,10.7-7.9,13.9-7.9c10.3,0,16.3,7.1,16.3,16.8V72H92.5V41.4c0-5.4-2.9-7.4-6.1-7.4
		c-5.3,0-8.9,3.2-10.6,5v33H62.5V24.4z"/>
	<path class="st0" d="M119.2,67.4l1.3-10.1c7.5,3.8,13.2,5.2,16.9,5.2c3.2,0,4.9-1.1,4.9-2.7c0-0.9-0.5-2.4-2.7-3.6l-11.4-6.5
		c-6.8-3.8-8.7-7.7-8.7-12.3c0-7.5,5.7-14,17.6-14c9.3,0,16.3,4.6,16.3,4.6l-2.3,8.7c-5.9-2.7-10.3-3.7-13.3-3.7
		c-3.4,0-5,1.3-5.1,3.2c0,1.6,1.4,2.7,3.3,3.8l10,5.7c6.7,3.8,8.5,8.5,8.5,12.8c0,8.7-5,14.3-15.7,14.3
		C126.8,72.9,119.2,67.4,119.2,67.4"/>
	<path class="st0" d="M165.1,8.2c0-4,3.1-8.2,8.4-8.2c5.4,0,8.4,4.2,8.4,8.2c0,4.1-3.1,8.2-8.4,8.2C168.2,16.4,165.1,12.4,165.1,8.2
		"/>
	<rect x="166.8" y="24.4" class="st0" width="13.4" height="47.6"/>
	<path class="st0" d="M197.4,60.1V35.2h-4.8c-1.7,0-2.7-0.7-2.7-1.9c0-0.6,0.3-1.3,1-2.2l17.5-18.2h2.4v11.6h14.7v10.8h-14.7v21.9
		c0,2.9,2.2,3.8,4.8,3.8c6.3,0,12.3-4.5,12.3-4.5v12c0,0-5.3,4.6-14.4,4.6C205.3,73,197.4,68.4,197.4,60.1"/>
	<path class="st0" d="M239.3,56.1V24.4h13.4V55c0,5.4,2.9,7.4,6.1,7.4c5.3,0,8.9-3.2,10.6-5v-33h13.4V72h-13.2v-7
		c-4,6.6-10.7,7.9-13.9,7.9C245.3,72.9,239.3,65.8,239.3,56.1"/>
</g>
</svg>
